# xmcd
#
# Track frame offsets:
# 150
# 17802
# 41981
# 57116
#
# Disc length: 1035 seconds
#
#
# Revision: 0
# Processed by: cddbd v1.5.2PL0 Copyright (c) Steve Scherf et al.
# Submitted via: Nero 7, 2, 3, 2 
#
DISCID=2f040904
DTITLE=Clem Snide - Fill Me With Your Light
DYEAR=2005
DGENRE=Country
TTITLE0=Fill Me With Your Light (Radio Edit)
TTITLE1=The Sound Of German Hip Hop (KEXP Live Radio Session)
TTITLE2=When We Become (KEXP Live Radio Session)
TTITLE3=Collapse (Acoustic Demo)
EXTD=
EXTT0=
EXTT1=
EXTT2=
EXTT3=
PLAYORDER=
